# xmcd CD database file
#
# Track frame offsets:
#	150
#	13667
#	26227
#	38770
#	51573
#	64780
#	76869
#	88564
#	101198
#	114222
#
# Disc length: 1679 seconds
#
# Revision: 0
# Processed by: cddbd v1.5.2PL0 Copyright (c) Steve Scherf et al.
# Submitted via: CDex 1.70beta2
#
DISCID=7b068d0a
DTITLE=Hank Williams - The Very Best Of Hank Williams -v1
DYEAR=1900
DGENRE=Country
TTITLE0=Hey Good Lookin'
TTITLE1=Lost Highway
TTITLE2=Howlin' At The Moon
TTITLE3=Move It On Over
TTITLE4=I'm A Long Gone Daddy
TTITLE5=You Win Again
TTITLE6=Kaw-Liga
TTITLE7=My Sweet Love Ain't Around
TTITLE8=There'll Be No Teardrops Tonight
TTITLE9=Nobody's Lonesome For Me
EXTD=
EXTT0=
EXTT1=
EXTT2=
EXTT3=
EXTT4=
EXTT5=
EXTT6=
EXTT7=
EXTT8=
EXTT9=
PLAYORDER=
